<svg width="82" height="82" viewBox="0 0 82 82" fill="none" xmlns="http://www.w3.org/2000/svg">
<path d="M14.3133 47.2891L24.1807 21.0482H24.6145L31.8795 40.4578H24.0723L21.9036 46.3132H34.1566L37.0843 52.4939L42.9398 51.9518L28.7349 14.1084H20.2771L0 67.8915H6.83132L12.3614 53.1445" fill="#0F5364"/>
<path d="M36 14.8674C39.1446 14.4337 42.8313 14.1084 45.5422 14.1084C52.1566 14.1084 55.8434 14.5421 62.4578 15.4096L64.7349 21.5903C62.4578 21.0482 60.1807 20.6144 56.0602 20.1807C52.0482 19.8554 50.0964 19.6385 47.7108 19.6385C43.5904 19.6385 40.4458 19.9638 38.1687 20.6144" fill="#016C88"/>
<path d="M71.8916 40.6747H53.241L55.3012 46.2048H67.4458L73.3012 61.7108C72.5422 61.8192 71.4578 61.9277 70.2651 62.0361C69.0723 62.1445 67.7711 62.253 66.5783 62.253C65.2771 62.253 64.0843 62.3614 63 62.3614C60.1807 62.3614 57.6867 62.253 55.6265 61.9277C53.5663 61.6024 51.8313 61.0602 50.3133 60.1927C48.7952 59.3252 47.494 58.1325 46.1928 56.506C45 54.8795 43.8072 52.9277 42.6145 50.3253C41.4217 47.8313 40.2289 44.6867 38.8193 41C37.8434 38.2891 29.9277 17.1445 29.9277 17.1445C28.6265 18.2289 27.8675 19.8554 27.6506 21.8072C27.4337 23.8674 27.6506 26.3614 28.4096 29.506C29.1687 32.6506 30.3614 36.4457 32.0964 41C33.8313 45.5542 35.3494 49.3493 36.9759 52.4939C38.494 55.6385 40.1205 58.2409 41.8554 60.1927C43.5904 62.253 45.4337 63.771 47.6024 64.8554C49.6627 65.9397 52.1566 66.6987 54.9759 67.1325C57.7952 67.5662 61.0482 67.7831 64.9518 67.7831C66.5783 67.7831 68.3133 67.6746 70.2651 67.5662C72.2169 67.4578 74.1687 67.2409 76.1205 67.024C78.0723 66.8072 79.9157 66.4819 81.4337 66.265L71.8916 40.6747Z" fill="#016C88"/>
</svg>
