<svg width="207" height="172" viewBox="0 0 207 172" fill="none" xmlns="http://www.w3.org/2000/svg">
<rect x="0.5" y="0.5" width="206" height="171" rx="4.5" stroke="#9747FF" stroke-dasharray="10 5"/>
<path d="M31.7933 34.5384L29.25 32.7076L22.198 37.8769C22.4293 38.0923 22.7761 38.2 23.2385 38.2H40.4638C40.8106 38.2 41.1574 37.9846 41.5043 37.8769L34.1055 32.7076L31.7933 34.5384Z" fill="#016C88"/>
<path d="M41.273 24.523C40.9262 24.3076 40.5794 24.2 40.2326 24.2H23.0073C22.6605 24.2 22.3136 24.3076 22.198 24.6307L31.7933 32.3846L41.273 24.523Z" fill="#016C88"/>
<path d="M21.6199 36.3692L27.9783 31.9538L21.6199 26.6769V36.3692Z" fill="#016C88"/>
<path d="M35.2616 31.7385L41.6199 36.3693V26.4615L35.2616 31.7385Z" fill="#016C88"/>
<path fill-rule="evenodd" clip-rule="evenodd" d="M86 32C86 36.9706 81.9706 41 77 41C72.0294 41 68 36.9706 68 32C68 27.0294 72.0294 23 77 23C81.9706 23 86 27.0294 86 32ZM76 29.8C76 29.5238 76.2239 29.3 76.5 29.3H77.5C77.7761 29.3 78 29.5238 78 29.8V36.5C78 36.7761 77.7761 37 77.5 37H76.5C76.2239 37 76 36.7761 76 36.5V29.8ZM76.5 26C76.2239 26 76 26.2238 76 26.5V27.7C76 27.9761 76.2239 28.2 76.5 28.2H77.5C77.7761 28.2 78 27.9761 78 27.7V26.5C78 26.2238 77.7761 26 77.5 26H76.5Z" fill="#016C88"/>
<rect x="112" y="28" width="20" height="12" rx="0.5" fill="#016C88"/>
<path fill-rule="evenodd" clip-rule="evenodd" d="M129 24.5C129 24.2239 128.776 24 128.5 24H115.5C115.224 24 115 24.2239 115 24.5V25V26V28.5C115 28.7761 115.224 29 115.5 29H116.5C116.776 29 117 28.7761 117 28.5V26.5C117 26.2239 117.224 26 117.5 26H126.5C126.776 26 127 26.2239 127 26.5V28.5C127 28.7761 127.224 29 127.5 29H128.5C128.776 29 129 28.7761 129 28.5V26V25V24.5Z" fill="#016C88"/>
<circle cx="32" cy="70" r="6" fill="#016C88"/>
<rect x="43" y="69" width="2" height="4" rx="0.5" transform="rotate(90 43 69)" fill="#016C88"/>
<rect x="25" y="69" width="2" height="4" rx="0.5" transform="rotate(90 25 69)" fill="#016C88"/>
<rect x="31" y="59" width="2" height="4" rx="0.5" fill="#016C88"/>
<rect x="31" y="77" width="2" height="4" rx="0.5" fill="#016C88"/>
<rect x="39.0711" y="61.5148" width="2" height="4" rx="0.5" transform="rotate(45 39.0711 61.5148)" fill="#016C88"/>
<rect x="26.3431" y="74.2427" width="2" height="4" rx="0.5" transform="rotate(45 26.3431 74.2427)" fill="#016C88"/>
<rect x="23.5147" y="62.929" width="2" height="4" rx="0.5" transform="rotate(-45 23.5147 62.929)" fill="#016C88"/>
<rect x="36.2426" y="75.6569" width="2" height="4" rx="0.5" transform="rotate(-45 36.2426 75.6569)" fill="#016C88"/>
<path fill-rule="evenodd" clip-rule="evenodd" d="M27.471 98.1331C27.2595 97.9556 26.9166 97.9556 26.7051 98.1331L25.1586 99.4312C24.9471 99.6087 24.9471 99.8965 25.1586 100.074L34.6015 108L25.1586 115.926C24.9471 116.103 24.9471 116.391 25.1586 116.569L26.7051 117.867C26.9166 118.044 27.2595 118.044 27.471 117.867L38.8408 108.323C39.0376 108.158 39.0513 107.898 38.8819 107.719C38.8652 107.7 38.8464 107.681 38.8256 107.664L27.471 98.1331Z" fill="#016C88"/>
<path fill-rule="evenodd" clip-rule="evenodd" d="M79.3364 62.2026C79.7696 62.299 79.8102 62.8871 79.4518 63.1489C77.958 64.2399 76.9872 66.0064 76.9872 68C76.9872 71.3137 79.6692 74 82.9777 74C83.4335 74 83.8774 73.949 84.3041 73.8524C84.7376 73.7543 85.1551 74.1722 84.9426 74.5626C83.5037 77.2063 80.7042 79 77.4864 79C72.7995 79 69 75.1944 69 70.5C69 65.8056 72.7995 62 77.4864 62C78.1218 62 78.7409 62.0699 79.3364 62.2026Z" fill="#016C88"/>
</svg>
