<svg width="24" height="24" viewBox="0 0 24 24" fill="none" xmlns="http://www.w3.org/2000/svg">
<path fill-rule="evenodd" clip-rule="evenodd" d="M21 12C21 16.9706 16.9706 21 12 21C7.02944 21 3 16.9706 3 12C3 7.02944 7.02944 3 12 3C16.9706 3 21 7.02944 21 12ZM11 9.79998C11 9.52384 11.2239 9.29998 11.5 9.29998H12.5C12.7761 9.29998 13 9.52384 13 9.79998V16.5C13 16.7761 12.7761 17 12.5 17H11.5C11.2239 17 11 16.7761 11 16.5V9.79998ZM11.5 5.99996C11.2239 5.99996 11 6.22382 11 6.49996V7.69996C11 7.9761 11.2239 8.19996 11.5 8.19996H12.5C12.7761 8.19996 13 7.9761 13 7.69996V6.49996C13 6.22382 12.7761 5.99996 12.5 5.99996H11.5Z" fill="#016C88"/>
</svg>
