<svg width="24" height="24" viewBox="0 0 24 24" fill="none" xmlns="http://www.w3.org/2000/svg">
<rect x="2" y="8" width="20" height="12" rx="0.5" fill="#016C88"/>
<path fill-rule="evenodd" clip-rule="evenodd" d="M19 4.5C19 4.22386 18.7761 4 18.5 4H5.5C5.22386 4 5 4.22386 5 4.5V5V6V8.5C5 8.77614 5.22386 9 5.5 9H6.5C6.77614 9 7 8.77614 7 8.5V6.5C7 6.22386 7.22386 6 7.5 6H16.5C16.7761 6 17 6.22386 17 6.5V8.5C17 8.77614 17.2239 9 17.5 9H18.5C18.7761 9 19 8.77614 19 8.5V6V5V4.5Z" fill="#016C88"/>
</svg>
